<?xml version="1.0" encoding="UTF-8" standalone="no"?>
<!-- Created with Inkscape (http://www.inkscape.org/) -->

<svg
   xmlns:dc="http://purl.org/dc/elements/1.1/"
   xmlns:cc="http://creativecommons.org/ns#"
   xmlns:rdf="http://www.w3.org/1999/02/22-rdf-syntax-ns#"
   xmlns:svg="http://www.w3.org/2000/svg"
   xmlns="http://www.w3.org/2000/svg"
   xmlns:sodipodi="http://sodipodi.sourceforge.net/DTD/sodipodi-0.dtd"
   xmlns:inkscape="http://www.inkscape.org/namespaces/inkscape"
   width="512"
   height="512"
   viewBox="0 0 135.46667 135.46667"
   version="1.1"
   id="svg8"
   inkscape:version="0.92.5 (2060ec1f9f, 2020-04-08)"
   sodipodi:docname="theme-manager.svg">
  <defs
     id="defs2" />
  <sodipodi:namedview
     id="base"
     pagecolor="#ffffff"
     bordercolor="#666666"
     borderopacity="1.0"
     inkscape:pageopacity="0.0"
     inkscape:pageshadow="2"
     inkscape:zoom="1.4433594"
     inkscape:cx="165.74497"
     inkscape:cy="296.1087"
     inkscape:document-units="mm"
     inkscape:current-layer="layer1"
     showgrid="false"
     inkscape:snap-object-midpoints="true"
     inkscape:snap-center="true"
     inkscape:window-width="1904"
     inkscape:window-height="1006"
     inkscape:window-x="0"
     inkscape:window-y="32"
     inkscape:window-maximized="1"
     inkscape:snap-midpoints="true"
     inkscape:snap-intersection-paths="true"
     inkscape:object-paths="false"
     units="px"
     inkscape:snap-smooth-nodes="true" />
  <metadata
     id="metadata5">
    <rdf:RDF>
      <cc:Work
         rdf:about="">
        <dc:format>image/svg+xml</dc:format>
        <dc:type
           rdf:resource="http://purl.org/dc/dcmitype/StillImage" />
        <dc:title />
      </cc:Work>
    </rdf:RDF>
  </metadata>
  <g
     inkscape:label="Layer 1"
     inkscape:groupmode="layer"
     id="layer1"
     transform="translate(-53.232051,-78.911447)">
    <path
       style="opacity:1;fill:#000000;fill-opacity:0.25098039;stroke:none;stroke-width:0.67450017;stroke-opacity:1"
       d="m 118.67863,80.499615 a 67.73333,67.73333 0 0 0 -9.49115,1.076031 l -2.65373,15.782408 a 52.916666,52.916666 0 0 0 -0.026,0.0087 c -8e-5,0.0044 -2.5e-4,0.0087 -8.7e-4,0.01298 A 52.916666,52.916666 0 0 0 87.430007,107.40499 L 72.92788,100.63456 a 67.73333,67.73333 0 0 0 -6.282921,7.19946 67.73333,67.73333 0 0 0 -5.07646,8.09117 l 10.684768,11.91527 a 52.916666,52.916666 0 0 0 -0.0095,0.0256 c 0.0033,0.003 0.0064,0.005 0.0096,0.008 a 52.916666,52.916666 0 0 0 -4.056294,21.16507 l -14.335685,7.11716 a 67.73333,67.73333 0 0 0 1.711467,9.40072 l 1.9e-5,5.1e-4 a 67.73333,67.73333 0 0 0 3.160761,9.01349 l 15.977544,-0.92404 a 52.916666,52.916666 0 0 0 0.01426,0.0233 c 0.0042,-7.9e-4 0.0082,-0.002 0.01234,-0.002 a 52.916666,52.916666 0 0 0 14.018777,16.36836 l -3.374152,15.64521 a 67.73333,67.73333 0 0 0 8.416761,4.5237 l 4.97e-4,-5.3e-4 a 67.73333,67.73333 0 0 0 9.018215,3.14899 l 9.2389,-13.0676 a 52.916666,52.916666 0 0 0 0.0271,0.004 c 0.003,-0.004 0.003,-0.008 0.006,-0.0117 a 52.916666,52.916666 0 0 0 21.53793,-0.75418 l 10.12853,12.39283 a 67.73333,67.73333 0 0 0 8.78417,-3.76033 l -3e-5,-0.001 a 67.73333,67.73333 0 0 0 8.08424,-5.08701 l -4.45572,-15.37126 a 52.916666,52.916666 0 0 0 0.02,-0.0188 c -0.001,-0.004 -0.004,-0.008 -0.005,-0.0117 a 52.916666,52.916666 0 0 0 12.83909,-17.30877 l 16.00415,-0.19175 a 67.73333,67.73333 0 0 0 2.53724,-9.21246 l -9.8e-4,-4.8e-4 a 67.73333,67.73333 0 0 0 1.06361,-9.49245 l -14.79621,-6.09986 a 52.916666,52.916666 0 0 0 -0.002,-0.0279 c -0.005,-0.002 -0.009,-0.002 -0.0126,-0.004 a 52.916666,52.916666 0 0 0 -5.52742,-20.82934 l 9.82861,-12.63162 a 67.73333,67.73333 0 0 0 -5.62059,-7.72744 l -9.8e-4,-4.9e-4 a 67.73333,67.73333 0 0 0 -6.75867,-6.749724 l -13.99404,7.764504 a 52.916666,52.916666 0 0 0 -0.0228,-0.0157 c -0.004,0.002 -0.008,0.006 -0.0106,0.008 a 52.916666,52.916666 0 0 0 -19.73671,-8.665004 l -3.74874,-15.559862 a 67.73333,67.73333 0 0 0 -9.54611,-0.423133 z m 1.22501,46.584845 a 21.166666,21.166666 0 0 1 8.12955,1.15566 l 0.0603,-0.006 0.0157,0.006 0.0434,0.0441 a 21.166666,21.166666 0 0 1 12.84762,12.93439 l 0.0424,0.0425 0.005,0.0158 -0.007,0.0614 a 21.166666,21.166666 0 0 1 -2.10246,18.10914 l -0.007,0.0598 -0.01,0.0148 -0.0516,0.0323 a 21.166666,21.166666 0 0 1 -15.46867,9.64749 l -0.0516,0.0317 -0.016,0.001 -0.0587,-0.0212 a 21.166666,21.166666 0 0 1 -17.18695,-6.07841 l -0.057,-0.0202 -0.0124,-0.013 -0.0195,-0.0567 a 21.166666,21.166666 0 0 1 -5.96372,-17.22766 l -0.0195,-0.0567 0.002,-0.0182 0.0324,-0.0508 a 21.166666,21.166666 0 0 1 9.75041,-15.40404 l 0.0324,-0.0508 0.0167,-0.009 0.0602,-0.007 a 21.166666,21.166666 0 0 1 9.99319,-3.13551 z"
       id="path1758"
       inkscape:connector-curvature="0" />
    <path
       style="opacity:1;fill:#ff0000;fill-opacity:1;stroke:none;stroke-width:0.67450017;stroke-opacity:1"
       d="m 120.91458,80.570795 a 67.73333,67.73333 0 0 0 -9.52293,0.744141 l -3.20291,15.680179 a 52.916666,52.916666 0 0 0 -0.0263,0.0078 c -5.3e-4,0.01024 -0.002,0.01971 -0.002,0.02997 l -8.200529,48.131945 0.06305,-0.092 a 21.166666,21.166666 0 0 1 10.28206,-15.05438 l 0.0341,-0.0496 42.74365,-23.59856 a 52.916666,52.916666 0 0 0 -19.4393,-9.362255 L 130.4401,81.326821 a 67.73333,67.73333 0 0 0 -9.52552,-0.756026 z"
       id="path817"
       inkscape:connector-curvature="0" />
    <path
       id="path862"
       d="m 120.91458,80.570795 a 67.73333,67.73333 0 0 0 -9.52293,0.744141 l -3.20291,15.680179 a 52.916666,52.916666 0 0 0 -0.0263,0.0078 c -5.3e-4,0.01024 -0.002,0.01971 -0.002,0.02997 l -8.200529,48.131945 0.06305,-0.092 a 21.166666,21.166666 0 0 1 10.28206,-15.05438 l 0.0341,-0.0496 42.74365,-23.59856 a 52.916666,52.916666 0 0 0 -19.4393,-9.362255 L 130.4401,81.326821 a 67.73333,67.73333 0 0 0 -9.52552,-0.756026 z"
       style="opacity:1;fill:#f92300;fill-opacity:1;stroke:none;stroke-width:0.67450017;stroke-opacity:1;"
       inkscape:connector-curvature="0"
       inkscape:transform-center-x="-5.6066467"
       inkscape:transform-center-y="-35.436391" />
    <path
       inkscape:transform-center-y="-18.435056"
       inkscape:transform-center-x="35.519831"
       inkscape:connector-curvature="0"
       style="opacity:1;fill:#991dc3;fill-opacity:1;stroke:none;stroke-width:0.67450017;stroke-opacity:1"
       d="m 67.958886,106.07253 a 67.73333,67.73333 0 0 0 -5.355738,7.90924 l 10.262156,12.28066 a 52.916666,52.916666 0 0 0 -0.01037,0.0254 c 0.0077,0.007 0.01442,0.0135 0.02211,0.0203 l 32.517756,36.42154 -0.0326,-0.10664 a 21.166666,21.166666 0 0 1 -5.35906,-17.42515 l -0.01752,-0.0576 8.20061,-48.131704 A 52.916666,52.916666 0 0 0 88.746368,106.36934 L 74.489102,99.096624 a 67.73333,67.73333 0 0 0 -6.530217,6.975906 z"
       id="path864" />
    <path
       id="path866"
       d="m 54.879041,163.3749 a 67.73333,67.73333 0 0 0 2.844354,9.11864 l 15.99976,-0.36625 a 52.916666,52.916666 0 0 0 0.01339,0.024 c 0.01027,-0.002 0.01955,-0.003 0.02966,-0.005 l 48.750025,-2.71446 -0.1037,-0.041 a 21.166666,21.166666 0 0 1 -16.96479,-6.67469 l -0.056,-0.0222 -32.517515,-36.42145 a 52.916666,52.916666 0 0 0 -4.802223,21.03499 l -14.575368,6.61217 a 67.73333,67.73333 0 0 0 1.382368,9.45495 z"
       style="opacity:1;fill:#1d4dcc;fill-opacity:1;stroke:none;stroke-width:0.67450017;stroke-opacity:1"
       inkscape:connector-curvature="0"
       inkscape:transform-center-x="32.908088"
       inkscape:transform-center-y="1.078838" />
    <path
       inkscape:transform-center-y="38.203863"
       inkscape:transform-center-x="14.830569"
       inkscape:connector-curvature="0"
       style="opacity:1;fill:#1facc7;fill-opacity:1;stroke:none;stroke-width:0.67450017;stroke-opacity:1"
       d="m 91.52423,209.32894 a 67.73333,67.73333 0 0 0 8.90263,3.46167 l 9.68947,-12.73738 a 52.916666,52.916666 0 0 0 0.0271,0.005 c 0.005,-0.009 0.01,-0.0172 0.0146,-0.0263 l 28.27329,-39.80646 -0.0967,0.0555 a 21.166666,21.166666 0 0 1 -15.79594,9.10185 l -0.0523,0.0299 -48.749798,2.71433 a 52.916666,52.916666 0 0 0 13.451513,16.86977 l -3.918146,15.51806 a 67.73333,67.73333 0 0 0 8.254022,4.81437 z"
       id="path868" />
    <path
       id="path870"
       d="m 150.30044,209.33104 a 67.73333,67.73333 0 0 0 8.2572,-4.80196 l -3.91705,-15.5172 a 52.916666,52.916666 0 0 0 0.0208,-0.0181 c -0.004,-0.01 -0.007,-0.0185 -0.0115,-0.0278 l -13.49337,-46.924 -0.0169,0.1102 a 21.166666,21.166666 0 0 1 -2.73268,18.02465 l -0.009,0.0595 -28.27325,39.80621 a 52.916666,52.916666 0 0 0 21.5762,0.002 l 9.68946,12.73878 a 67.73333,67.73333 0 0 0 8.91035,-3.45145 z"
       style="opacity:1;fill:#53b002;fill-opacity:1;stroke:none;stroke-width:0.67450017;stroke-opacity:1"
       inkscape:connector-curvature="0"
       inkscape:transform-center-x="-13.426647"
       inkscape:transform-center-y="29.108473" />
    <path
       inkscape:transform-center-y="10.482423"
       inkscape:transform-center-x="-37.576757"
       inkscape:connector-curvature="0"
       style="opacity:1;fill:#edc400;fill-opacity:1;stroke:none;stroke-width:0.67450017;stroke-opacity:1"
       d="m 186.94891,163.37962 a 67.73333,67.73333 0 0 0 1.39405,-9.44969 l -14.57401,-6.61249 a 52.916666,52.916666 0 0 0 -10e-4,-0.0276 c -0.0103,-0.003 -0.0188,-0.006 -0.0289,-0.008 l -45.09946,-18.70755 0.0756,0.0819 a 21.166666,21.166666 0 0 1 12.38831,13.3748 l 0.0409,0.0441 13.4932,46.92382 a 52.916666,52.916666 0 0 0 13.45427,-16.86757 l 16.00085,0.36714 a 67.73333,67.73333 0 0 0 2.85715,-9.11831 z"
       id="path872" />
    <path
       id="path874"
       d="m 173.87317,106.07632 a 67.73333,67.73333 0 0 0 -6.51882,-6.981756 l -14.25668,7.271456 a 52.916666,52.916666 0 0 0 -0.0222,-0.0164 c -0.009,0.006 -0.0164,0.011 -0.0243,0.0176 l -42.74544,23.59578 0.11117,-0.008 a 21.166666,21.166666 0 0 1 18.18083,-1.34634 l 0.06,-0.004 45.09921,18.70757 a 52.916666,52.916666 0 0 0 -4.79879,-21.03578 l 10.26353,-12.28096 a 67.73333,67.73333 0 0 0 -5.3475,-7.91903 z"
       style="opacity:1;fill:#f87f00;fill-opacity:1;stroke:none;stroke-width:0.67450017;stroke-opacity:1"
       inkscape:connector-curvature="0"
       inkscape:transform-center-x="-23.849187"
       inkscape:transform-center-y="-25.100782" />
    <path
       style="opacity:1;fill:#ffffff;fill-opacity:1;stroke:#000000;stroke-width:1.15892696;stroke-opacity:1"
       d="m 255.80859,190.27148 a 71.999997,71.999997 0 0 0 -72,72 71.999997,71.999997 0 0 0 72,72 71.999997,71.999997 0 0 0 0.0137,0 v -144 a 71.999997,71.999997 0 0 0 -0.0137,0 z"
       transform="matrix(0.26458333,0,0,0.26458333,53.232051,78.911447)"
       id="circle876"
       inkscape:connector-curvature="0"
       inkscape:transform-center-x="9.5268099" />
    <path
       inkscape:transform-center-x="-9.5266185"
       inkscape:connector-curvature="0"
       id="path1005"
       d="m 120.92198,167.35411 a 19.049999,19.049999 0 0 0 19.05,-19.05 19.049999,19.049999 0 0 0 -19.05,-19.05 19.049999,19.049999 0 0 0 -0.004,0 v 38.1 a 19.049999,19.049999 0 0 0 0.004,0 z"
       style="opacity:1;fill:#000000;fill-opacity:1;stroke:#000000;stroke-width:0.30663276;stroke-opacity:1"
       inkscape:transform-center-y="1.4575716e-06" />
  </g>
</svg>
